<svg fill="none" height="193" viewBox="0 0 208 193" width="208" xmlns="http://www.w3.org/2000/svg" xmlns:xlink="http://www.w3.org/1999/xlink"><linearGradient id="a" gradientUnits="userSpaceOnUse" x1="51" x2="155.591" y1="184.7" y2="5.36396"><stop offset="0" stop-color="#ff006b"/><stop offset=".494792" stop-color="#fc5b00"/><stop offset="1" stop-color="#f9bd00"/></linearGradient><path d="m206.541 85.8901c-3.902-15.5064-17.504-27.6694-33.123-29.9303 15.949-44.2965-39.968-76.4302-69.539-40.4728-29.6141-35.983-85.5189-3.7662-69.5253 40.492-45.7859 8.0446-45.8239 73.016 0 81.054-8.9389 22.334 4.1364 48.55 27.28 54.532 15.1372 4.362 32.5963-1.499 42.2263-14.007 7.233 9.485 19.966 15.608 31.652 15.371 27.958.365 48.564-29.155 37.874-55.947 23.239-3.1 39.74-27.797 33.155-51.0919zm-90.887 30.3589c-.292.18-.59.353-.888.519-6.376 3.683-15.3718 3.683-21.7477 0-.2919-.179-.5901-.352-.8882-.519h-.0571c-3.2634-1.998-5.9796-4.789-7.9011-8.118s-2.9871-7.091-3.0998-10.9426c0-.4484 0-.8968 0-1.3387.1766-5.9958 2.6606-11.686 6.9248-15.863 4.2642-4.1771 9.9728-6.5121 15.9141-6.5094 23.188.237 31.321 30.7437 11.832 42.7717zm-43.5081-98.2705c3.6963.0025 7.3367.9108 10.6087 2.6466 3.272 1.7359 6.0778 4.2477 8.1764 7.3195 1.4618 2.0856 3.4018 3.783 5.6544 4.9474s4.7506 1.7612 7.2816 1.7393c2.577-.0011 5.115-.6334 7.397-1.8427s4.239-2.9594 5.704-5.1002c11.698-17.082 40.894-10.6322 41.471 13.3479-.001 3.9412-1.003 7.8163-2.91 11.2553s-4.655 6.3272-7.983 8.3886c-10.499 6.674-24.107 3.0039-30.705-6.5138-1.467-2.0921-3.413-3.796-5.671-4.9668-2.259-1.1708-4.764-1.774-7.303-1.7584-2.521-.0215-5.0101.5744-7.2531 1.7368s-4.1735 2.8565-5.6258 4.9372c-7.7589 11.3751-25.015 13.8667-35.3053 2.8886-13.843-14.3663-3.5781-39.0829 16.4631-39.0253zm21.9255 140.3965c-4.2506 15.416-23.1817 21.815-35.8383 11.9-8.7549-6.655-11.191-18.843-6.6676-28.355 1.0467-2.226 1.5411-4.677 1.4406-7.139-.1006-2.463-.7932-4.864-2.018-6.996l-.4505-.782c-1.2417-2.13-2.9756-3.925-5.0535-5.232-2.078-1.308-4.4384-2.088-6.8798-2.274-7.3212-.641-14.3315-4.874-17.9604-11.465-10.0745-17.5048 6.0143-38.846 25.2498-33.9014 14.5916 3.5676 21.0817 19.8553 15.1436 32.3704-1.055 2.289-1.5421 4.804-1.4194 7.326.1227 2.521.8515 4.975 2.1236 7.149l.1332.231c1.261 2.195 3.0289 4.049 5.1531 5.406 2.1243 1.356 4.542 2.173 7.0468 2.382 3.3846.291 6.6631 1.336 9.5987 3.062 8.8882 5.008 13.4052 16.557 10.4107 26.318zm93.0186-50.343c-1.854 3.238-4.459 5.973-7.593 7.968-3.133 1.995-6.7 3.191-10.393 3.484-2.413.165-4.751.92-6.81 2.201s-3.779 3.049-5.009 5.152l-.59 1.031c-1.232 2.111-1.928 4.497-2.025 6.946-.098 2.448.406 4.883 1.466 7.087 9.352 18.856-10.931 41.632-31.968 30.039-15.181-8.806-15.099-31.128-.108-39.883 3.004-1.76 6.364-2.811 9.827-3.075 2.436-.194 4.787-.984 6.852-2.302s3.781-3.124 4.999-5.262l.495-.864c1.203-2.154 1.871-4.569 1.946-7.04s-.444-4.924-1.514-7.147c-4.816-10.3572-1.39-23.6218 9.015-29.7257 1.922-1.142 4-1.9943 6.166-2.5299 19.489-4.8358 35.28 16.3453 25.256 33.9206z" fill="url(#a)"/></svg>