<svg xmlns="http://www.w3.org/2000/svg" width="64" height="64"><g transform="matrix(1.711138 0 0 1.711138 -9.303671 28.796635)" fill-rule="evenodd"><g fill="#02303a"><path d="M42.166-.22c.835-1.953.82-3.865.3-5.387C41.833-7.48 39.234-9.93 38.4-8.96c-.108.135-1.603-.04-1.845.283-.35.47-.148.62.027.78.525.47 1.872.983 2.464 2.572.256.673.848 2.25-.175 3.192-1.172 1.064-2.478 1.306-7.838-3.676-5.7-5.32-13.386-3.15-15.918-2.316-2.545.848-3.703 1.683-2.707 3.65 1.36 2.666.916 1.845 2.235 4.04 2.1 3.5 6.693-1.616 6.693-1.616-3.42 5.158-6.356 3.905-7.487 2.114-1-1.63-1.805-3.5-1.805-3.5C3.382-.3 5.725 13.5 5.725 13.5h4.3c1.104-5.077 5.023-4.888 5.696 0h3.286c2.9-9.925 9.117 0 9.117 0h3.7c0-5.292-.552-7.285 2.155-7.65 4.633-.633 6.787-2.8 8.188-6.06z"/><path d="M42.826-3.815a13.45 13.45 0 0 0-2.316.404c-.027.027-.04.054-.067.094-.337.377-.754.754-1.24.956a1.23 1.23 0 0 1-.189.094c-.04.04-.08.094-.135.135-1.172 1.064-2.586 1.306-7.838-3.676-5.656-5.36-13.372-3.138-15.918-2.303s-3.703 1.67-2.707 3.636c1.36 2.666.916 1.845 2.235 4.04 2.1 3.5 6.693-1.616 6.693-1.616-3.42 5.158-6.356 3.905-7.487 2.114-1-1.63-1.805-3.5-1.805-3.5C3.382-.3 5.725 13.5 5.725 13.5h4.3c1.104-5.077 5.023-4.888 5.696 0h3.286c2.9-9.925 9.117 0 9.117 0h3.7c0-5.292-.552-7.285 2.155-7.65 4.62-.633 6.774-2.788 8.174-6.06.552-1.252.74-2.478.673-3.596z"/></g><g transform="matrix(.134666 0 0 .134666 3.786295 -12.554531)"><path d="M173.7 75.2l34.6 11.5c-1.1 5.3-11 15.5-23.8 11.2-16.8-5.6-10.8-22.7-10.8-22.7z" fill="#fff"/><ellipse transform="matrix(.9944 -.1056 .1056 .9944 -8.0067 20.6062)" cx="190.6" cy="85.9" rx="8.9" ry="8.6" fill="#02303a"/></g><path d="M36.6-7.895c.148.135.337.256.525.377.902-.74 2.06-.727 3.03-1.13-.875-.808-2.25-1.427-2.693-.902-.108.135-.646.552-.9.875-.35.47-.148.62.027.78z" fill="#02303a"/></g></svg>